<?xml version="1.0" encoding="utf-8"?>
<svg xmlns="http://www.w3.org/2000/svg"
     width="261.000mm" height="108.000mm"
     viewBox="0 0 261.0000 108.0000">
  <desc>Wang Tile Laser-Cut Puzzle | tile=40.0mm tab=5.0mm tol=0.15mm hatch=3.0mm | Ink: none  Red: hatch(90)deg  Teal: hatch(45)deg  Gold: hatch(0,90)deg  Slate: circles  Plum: triangles | black=raster blue=engrave red=cut</desc>
  <!-- piece 001  T:Red  R:Gold  B:Red/flat  L:Plum/flat -->
  <g transform="translate(6.0000,6.0000)">
    <defs>
      <clipPath id="cp001e3">
        <polygon points="0.0000,40.0000 0.0000,0.0000 20.0000,20.0000"/>
      </clipPath>
    </defs>
    <g class="engrave">
      <line x1="3.0000" y1="0.0000" x2="3.0000" y2="3.0000" stroke="#0000ff" stroke-width="0.01" fill="none"/>
      <line x1="6.0000" y1="0.0000" x2="6.0000" y2="6.0000" stroke="#0000ff" stroke-width="0.01" fill="none"/>
      <line x1="9.0000" y1="0.0000" x2="9.0000" y2="9.0000" stroke="#0000ff" stroke-width="0.01" fill="none"/>
      <line x1="12.0000" y1="0.0000" x2="12.0000" y2="12.0000" stroke="#0000ff" stroke-width="0.01" fill="none"/>
      <line x1="15.0000" y1="0.0000" x2="15.0000" y2="15.0000" stroke="#0000ff" stroke-width="0.01" fill="none"/>
      <line x1="18.0000" y1="0.0000" x2="18.0000" y2="18.0000" stroke="#0000ff" stroke-width="0.01" fill="none"/>
      <line x1="21.0000" y1="0.0000" x2="21.0000" y2="19.0000" stroke="#0000ff" stroke-width="0.01" fill="none"/>
      <line x1="24.0000" y1="0.0000" x2="24.0000" y2="16.0000" stroke="#0000ff" stroke-width="0.01" fill="none"/>
      <line x1="27.0000" y1="0.0000" x2="27.0000" y2="13.0000" stroke="#0000ff" stroke-width="0.01" fill="none"/>
      <line x1="30.0000" y1="0.0000" x2="30.0000" y2="10.0000" stroke="#0000ff" stroke-width="0.01" fill="none"/>
      <line x1="33.0000" y1="0.0000" x2="33.0000" y2="7.0000" stroke="#0000ff" stroke-width="0.01" fill="none"/>
      <line x1="36.0000" y1="0.0000" x2="36.0000" y2="4.0000" stroke="#0000ff" stroke-width="0.01" fill="none"/>
      <line x1="39.0000" y1="0.0000" x2="39.0000" y2="1.0000" stroke="#0000ff" stroke-width="0.01" fill="none"/>
      <line x1="37.0000" y1="3.0000" x2="40.0000" y2="3.0000" stroke="#0000ff" stroke-width="0.01" fill="none"/>
      <line x1="34.0000" y1="6.0000" x2="40.0000" y2="6.0000" stroke="#0000ff" stroke-width="0.01" fill="none"/>
      <line x1="31.0000" y1="9.0000" x2="40.0000" y2="9.0000" stroke="#0000ff" stroke-width="0.01" fill="none"/>
      <line x1="28.0000" y1="12.0000" x2="40.0000" y2="12.0000" stroke="#0000ff" stroke-width="0.01" fill="none"/>
      <line x1="25.0000" y1="15.0000" x2="40.0000" y2="15.0000" stroke="#0000ff" stroke-width="0.01" fill="none"/>
      <line x1="22.0000" y1="18.0000" x2="40.0000" y2="18.0000" stroke="#0000ff" stroke-width="0.01" fill="none"/>
      <line x1="21.0000" y1="21.0000" x2="40.0000" y2="21.0000" stroke="#0000ff" stroke-width="0.01" fill="none"/>
      <line x1="24.0000" y1="24.0000" x2="40.0000" y2="24.0000" stroke="#0000ff" stroke-width="0.01" fill="none"/>
      <line x1="27.0000" y1="27.0000" x2="40.0000" y2="27.0000" stroke="#0000ff" stroke-width="0.01" fill="none"/>
      <line x1="30.0000" y1="30.0000" x2="40.0000" y2="30.0000" stroke="#0000ff" stroke-width="0.01" fill="none"/>
      <line x1="33.0000" y1="33.0000" x2="40.0000" y2="33.0000" stroke="#0000ff" stroke-width="0.01" fill="none"/>
      <line x1="36.0000" y1="36.0000" x2="40.0000" y2="36.0000" stroke="#0000ff" stroke-width="0.01" fill="none"/>
      <line x1="39.0000" y1="39.0000" x2="40.0000" y2="39.0000" stroke="#0000ff" stroke-width="0.01" fill="none"/>
      <line x1="21.0000" y1="19.0000" x2="21.0000" y2="21.0000" stroke="#0000ff" stroke-width="0.01" fill="none"/>
      <line x1="24.0000" y1="16.0000" x2="24.0000" y2="24.0000" stroke="#0000ff" stroke-width="0.01" fill="none"/>
      <line x1="27.0000" y1="13.0000" x2="27.0000" y2="27.0000" stroke="#0000ff" stroke-width="0.01" fill="none"/>
      <line x1="30.0000" y1="10.0000" x2="30.0000" y2="30.0000" stroke="#0000ff" stroke-width="0.01" fill="none"/>
      <line x1="33.0000" y1="7.0000" x2="33.0000" y2="33.0000" stroke="#0000ff" stroke-width="0.01" fill="none"/>
      <line x1="36.0000" y1="4.0000" x2="36.0000" y2="36.0000" stroke="#0000ff" stroke-width="0.01" fill="none"/>
      <line x1="39.0000" y1="1.0000" x2="39.0000" y2="39.0000" stroke="#0000ff" stroke-width="0.01" fill="none"/>
      <line x1="3.0000" y1="37.0000" x2="3.0000" y2="40.0000" stroke="#0000ff" stroke-width="0.01" fill="none"/>
      <line x1="6.0000" y1="34.0000" x2="6.0000" y2="40.0000" stroke="#0000ff" stroke-width="0.01" fill="none"/>
      <line x1="9.0000" y1="31.0000" x2="9.0000" y2="40.0000" stroke="#0000ff" stroke-width="0.01" fill="none"/>
      <line x1="12.0000" y1="28.0000" x2="12.0000" y2="40.0000" stroke="#0000ff" stroke-width="0.01" fill="none"/>
      <line x1="15.0000" y1="25.0000" x2="15.0000" y2="40.0000" stroke="#0000ff" stroke-width="0.01" fill="none"/>
      <line x1="18.0000" y1="22.0000" x2="18.0000" y2="40.0000" stroke="#0000ff" stroke-width="0.01" fill="none"/>
      <line x1="21.0000" y1="21.0000" x2="21.0000" y2="40.0000" stroke="#0000ff" stroke-width="0.01" fill="none"/>
      <line x1="24.0000" y1="24.0000" x2="24.0000" y2="40.0000" stroke="#0000ff" stroke-width="0.01" fill="none"/>
      <line x1="27.0000" y1="27.0000" x2="27.0000" y2="40.0000" stroke="#0000ff" stroke-width="0.01" fill="none"/>
      <line x1="30.0000" y1="30.0000" x2="30.0000" y2="40.0000" stroke="#0000ff" stroke-width="0.01" fill="none"/>
      <line x1="33.0000" y1="33.0000" x2="33.0000" y2="40.0000" stroke="#0000ff" stroke-width="0.01" fill="none"/>
      <line x1="36.0000" y1="36.0000" x2="36.0000" y2="40.0000" stroke="#0000ff" stroke-width="0.01" fill="none"/>
      <line x1="39.0000" y1="39.0000" x2="39.0000" y2="40.0000" stroke="#0000ff" stroke-width="0.01" fill="none"/>
      <polygon points="0.0000,40.0000 0.0000,0.0000 20.0000,20.0000" stroke="#0000ff" stroke-width="0.01" fill="none" clip-path="url(#cp001e3)"/>
      <polygon points="0.9487,37.1540 0.9487,2.8460 18.1026,20.0000" stroke="#0000ff" stroke-width="0.01" fill="none" clip-path="url(#cp001e3)"/>
      <polygon points="1.8974,34.3079 1.8974,5.6921 16.2053,20.0000" stroke="#0000ff" stroke-width="0.01" fill="none" clip-path="url(#cp001e3)"/>
      <polygon points="2.8460,31.4619 2.8460,8.5381 14.3079,20.0000" stroke="#0000ff" stroke-width="0.01" fill="none" clip-path="url(#cp001e3)"/>
      <polygon points="3.7947,28.6158 3.7947,11.3842 12.4105,20.0000" stroke="#0000ff" stroke-width="0.01" fill="none" clip-path="url(#cp001e3)"/>
      <polygon points="4.7434,25.7698 4.7434,14.2302 10.5132,20.0000" stroke="#0000ff" stroke-width="0.01" fill="none" clip-path="url(#cp001e3)"/>
      <polygon points="5.6921,22.9237 5.6921,17.0763 8.6158,20.0000" stroke="#0000ff" stroke-width="0.01" fill="none" clip-path="url(#cp001e3)"/>
      <polygon points="6.6408,20.0777 6.6408,19.9223 6.7184,20.0000" stroke="#0000ff" stroke-width="0.01" fill="none" clip-path="url(#cp001e3)"/>
    </g>
    <path d="M 0.0000,0.0000 L 16.6750,0.0000 L 16.6750,5.1500 L 23.3250,5.1500 L 23.3250,0.0000 L 40.0000,0.0000 L 40.0000,14.2500 L 45.0000,14.2500 L 45.0000,25.7500 L 40.0000,25.7500 L 40.0000,40.0000 L 0.0000,40.0000 Z" fill="none" stroke="#ff0000" stroke-width="0.01" stroke-linecap="square" stroke-linejoin="miter"/>
  </g>
  <!-- piece 002  T:Teal  R:Plum  B:Ink/flat  L:Gold -->
  <g transform="translate(57.0000,6.0000)">
    <defs>
      <clipPath id="cp002e1">
        <polygon points="40.0000,0.0000 40.0000,40.0000 20.0000,20.0000"/>
      </clipPath>
    </defs>
    <g class="engrave">
      <line x1="35.7574" y1="0.0000" x2="37.8787" y2="2.1213" stroke="#0000ff" stroke-width="0.01" fill="none"/>
      <line x1="31.5147" y1="0.0000" x2="35.7574" y2="4.2426" stroke="#0000ff" stroke-width="0.01" fill="none"/>
      <line x1="27.2721" y1="-0.0000" x2="33.6360" y2="6.3640" stroke="#0000ff" stroke-width="0.01" fill="none"/>
      <line x1="23.0294" y1="0.0000" x2="31.5147" y2="8.4853" stroke="#0000ff" stroke-width="0.01" fill="none"/>
      <line x1="18.7868" y1="-0.0000" x2="29.3934" y2="10.6066" stroke="#0000ff" stroke-width="0.01" fill="none"/>
      <line x1="14.5442" y1="-0.0000" x2="27.2721" y2="12.7279" stroke="#0000ff" stroke-width="0.01" fill="none"/>
      <line x1="10.3015" y1="-0.0000" x2="25.1508" y2="14.8492" stroke="#0000ff" stroke-width="0.01" fill="none"/>
      <line x1="6.0589" y1="-0.0000" x2="23.0294" y2="16.9706" stroke="#0000ff" stroke-width="0.01" fill="none"/>
      <line x1="1.8162" y1="-0.0000" x2="20.9081" y2="19.0919" stroke="#0000ff" stroke-width="0.01" fill="none"/>
      <polygon points="40.0000,0.0000 40.0000,40.0000 20.0000,20.0000" stroke="#0000ff" stroke-width="0.01" fill="none" clip-path="url(#cp002e1)"/>
      <polygon points="39.0513,2.8460 39.0513,37.1540 21.8974,20.0000" stroke="#0000ff" stroke-width="0.01" fill="none" clip-path="url(#cp002e1)"/>
      <polygon points="38.1026,5.6921 38.1026,34.3079 23.7947,20.0000" stroke="#0000ff" stroke-width="0.01" fill="none" clip-path="url(#cp002e1)"/>
      <polygon points="37.1540,8.5381 37.1540,31.4619 25.6921,20.0000" stroke="#0000ff" stroke-width="0.01" fill="none" clip-path="url(#cp002e1)"/>
      <polygon points="36.2053,11.3842 36.2053,28.6158 27.5895,20.0000" stroke="#0000ff" stroke-width="0.01" fill="none" clip-path="url(#cp002e1)"/>
      <polygon points="35.2566,14.2302 35.2566,25.7698 29.4868,20.0000" stroke="#0000ff" stroke-width="0.01" fill="none" clip-path="url(#cp002e1)"/>
      <polygon points="34.3079,17.0763 34.3079,22.9237 31.3842,20.0000" stroke="#0000ff" stroke-width="0.01" fill="none" clip-path="url(#cp002e1)"/>
      <polygon points="33.3592,19.9223 33.3592,20.0777 33.2816,20.0000" stroke="#0000ff" stroke-width="0.01" fill="none" clip-path="url(#cp002e1)"/>
      <line x1="0.0000" y1="3.0000" x2="3.0000" y2="3.0000" stroke="#0000ff" stroke-width="0.01" fill="none"/>
      <line x1="0.0000" y1="6.0000" x2="6.0000" y2="6.0000" stroke="#0000ff" stroke-width="0.01" fill="none"/>
      <line x1="0.0000" y1="9.0000" x2="9.0000" y2="9.0000" stroke="#0000ff" stroke-width="0.01" fill="none"/>
      <line x1="0.0000" y1="12.0000" x2="12.0000" y2="12.0000" stroke="#0000ff" stroke-width="0.01" fill="none"/>
      <line x1="0.0000" y1="15.0000" x2="15.0000" y2="15.0000" stroke="#0000ff" stroke-width="0.01" fill="none"/>
      <line x1="0.0000" y1="18.0000" x2="18.0000" y2="18.0000" stroke="#0000ff" stroke-width="0.01" fill="none"/>
      <line x1="0.0000" y1="21.0000" x2="19.0000" y2="21.0000" stroke="#0000ff" stroke-width="0.01" fill="none"/>
      <line x1="0.0000" y1="24.0000" x2="16.0000" y2="24.0000" stroke="#0000ff" stroke-width="0.01" fill="none"/>
      <line x1="0.0000" y1="27.0000" x2="13.0000" y2="27.0000" stroke="#0000ff" stroke-width="0.01" fill="none"/>
      <line x1="0.0000" y1="30.0000" x2="10.0000" y2="30.0000" stroke="#0000ff" stroke-width="0.01" fill="none"/>
      <line x1="0.0000" y1="33.0000" x2="7.0000" y2="33.0000" stroke="#0000ff" stroke-width="0.01" fill="none"/>
      <line x1="0.0000" y1="36.0000" x2="4.0000" y2="36.0000" stroke="#0000ff" stroke-width="0.01" fill="none"/>
      <line x1="0.0000" y1="39.0000" x2="1.0000" y2="39.0000" stroke="#0000ff" stroke-width="0.01" fill="none"/>
      <line x1="0.0000" y1="0.0000" x2="0.0000" y2="40.0000" stroke="#0000ff" stroke-width="0.01" fill="none"/>
      <line x1="3.0000" y1="3.0000" x2="3.0000" y2="37.0000" stroke="#0000ff" stroke-width="0.01" fill="none"/>
      <line x1="6.0000" y1="6.0000" x2="6.0000" y2="34.0000" stroke="#0000ff" stroke-width="0.01" fill="none"/>
      <line x1="9.0000" y1="9.0000" x2="9.0000" y2="31.0000" stroke="#0000ff" stroke-width="0.01" fill="none"/>
      <line x1="12.0000" y1="12.0000" x2="12.0000" y2="28.0000" stroke="#0000ff" stroke-width="0.01" fill="none"/>
      <line x1="15.0000" y1="15.0000" x2="15.0000" y2="25.0000" stroke="#0000ff" stroke-width="0.01" fill="none"/>
      <line x1="18.0000" y1="18.0000" x2="18.0000" y2="22.0000" stroke="#0000ff" stroke-width="0.01" fill="none"/>
    </g>
    <path d="M 0.0000,0.0000 L 15.4250,0.0000 L 15.4250,5.1500 L 24.5750,5.1500 L 24.5750,0.0000 L 40.0000,0.0000 L 40.0000,11.7500 L 45.0000,11.7500 L 45.0000,28.2500 L 40.0000,28.2500 L 40.0000,40.0000 L 0.0000,40.0000 L 0.0000,25.8250 L 5.1500,25.8250 L 5.1500,14.1750 L 0.0000,14.1750 Z" fill="none" stroke="#ff0000" stroke-width="0.01" stroke-linecap="square" stroke-linejoin="miter"/>
  </g>
  <!-- piece 003  T:Teal  R:Slate  B:Ink/flat  L:Plum -->
  <g transform="translate(108.0000,6.0000)">
    <defs>
      <clipPath id="cp003e1">
        <polygon points="40.0000,0.0000 40.0000,40.0000 20.0000,20.0000"/>
      </clipPath>
      <clipPath id="cp003e3">
        <polygon points="0.0000,40.0000 0.0000,0.0000 20.0000,20.0000"/>
      </clipPath>
    </defs>
    <g class="engrave">
      <line x1="35.7574" y1="0.0000" x2="37.8787" y2="2.1213" stroke="#0000ff" stroke-width="0.01" fill="none"/>
      <line x1="31.5147" y1="0.0000" x2="35.7574" y2="4.2426" stroke="#0000ff" stroke-width="0.01" fill="none"/>
      <line x1="27.2721" y1="-0.0000" x2="33.6360" y2="6.3640" stroke="#0000ff" stroke-width="0.01" fill="none"/>
      <line x1="23.0294" y1="0.0000" x2="31.5147" y2="8.4853" stroke="#0000ff" stroke-width="0.01" fill="none"/>
      <line x1="18.7868" y1="-0.0000" x2="29.3934" y2="10.6066" stroke="#0000ff" stroke-width="0.01" fill="none"/>
      <line x1="14.5442" y1="-0.0000" x2="27.2721" y2="12.7279" stroke="#0000ff" stroke-width="0.01" fill="none"/>
      <line x1="10.3015" y1="-0.0000" x2="25.1508" y2="14.8492" stroke="#0000ff" stroke-width="0.01" fill="none"/>
      <line x1="6.0589" y1="-0.0000" x2="23.0294" y2="16.9706" stroke="#0000ff" stroke-width="0.01" fill="none"/>
      <line x1="1.8162" y1="-0.0000" x2="20.9081" y2="19.0919" stroke="#0000ff" stroke-width="0.01" fill="none"/>
      <circle cx="20.0000" cy="20.0000" r="3.0000" stroke="#0000ff" stroke-width="0.01" fill="none" clip-path="url(#cp003e1)"/>
      <circle cx="20.0000" cy="20.0000" r="6.0000" stroke="#0000ff" stroke-width="0.01" fill="none" clip-path="url(#cp003e1)"/>
      <circle cx="20.0000" cy="20.0000" r="9.0000" stroke="#0000ff" stroke-width="0.01" fill="none" clip-path="url(#cp003e1)"/>
      <circle cx="20.0000" cy="20.0000" r="12.0000" stroke="#0000ff" stroke-width="0.01" fill="none" clip-path="url(#cp003e1)"/>
      <circle cx="20.0000" cy="20.0000" r="15.0000" stroke="#0000ff" stroke-width="0.01" fill="none" clip-path="url(#cp003e1)"/>
      <circle cx="20.0000" cy="20.0000" r="18.0000" stroke="#0000ff" stroke-width="0.01" fill="none" clip-path="url(#cp003e1)"/>
      <circle cx="20.0000" cy="20.0000" r="21.0000" stroke="#0000ff" stroke-width="0.01" fill="none" clip-path="url(#cp003e1)"/>
      <circle cx="20.0000" cy="20.0000" r="24.0000" stroke="#0000ff" stroke-width="0.01" fill="none" clip-path="url(#cp003e1)"/>
      <circle cx="20.0000" cy="20.0000" r="27.0000" stroke="#0000ff" stroke-width="0.01" fill="none" clip-path="url(#cp003e1)"/>
      <circle cx="20.0000" cy="20.0000" r="30.0000" stroke="#0000ff" stroke-width="0.01" fill="none" clip-path="url(#cp003e1)"/>
      <circle cx="20.0000" cy="20.0000" r="33.0000" stroke="#0000ff" stroke-width="0.01" fill="none" clip-path="url(#cp003e1)"/>
      <circle cx="20.0000" cy="20.0000" r="36.0000" stroke="#0000ff" stroke-width="0.01" fill="none" clip-path="url(#cp003e1)"/>
      <circle cx="20.0000" cy="20.0000" r="39.0000" stroke="#0000ff" stroke-width="0.01" fill="none" clip-path="url(#cp003e1)"/>
      <circle cx="20.0000" cy="20.0000" r="42.0000" stroke="#0000ff" stroke-width="0.01" fill="none" clip-path="url(#cp003e1)"/>
      <circle cx="20.0000" cy="20.0000" r="45.0000" stroke="#0000ff" stroke-width="0.01" fill="none" clip-path="url(#cp003e1)"/>
      <circle cx="20.0000" cy="20.0000" r="48.0000" stroke="#0000ff" stroke-width="0.01" fill="none" clip-path="url(#cp003e1)"/>
      <circle cx="20.0000" cy="20.0000" r="51.0000" stroke="#0000ff" stroke-width="0.01" fill="none" clip-path="url(#cp003e1)"/>
      <circle cx="20.0000" cy="20.0000" r="54.0000" stroke="#0000ff" stroke-width="0.01" fill="none" clip-path="url(#cp003e1)"/>
      <polygon points="0.0000,40.0000 0.0000,0.0000 20.0000,20.0000" stroke="#0000ff" stroke-width="0.01" fill="none" clip-path="url(#cp003e3)"/>
      <polygon points="0.9487,37.1540 0.9487,2.8460 18.1026,20.0000" stroke="#0000ff" stroke-width="0.01" fill="none" clip-path="url(#cp003e3)"/>
      <polygon points="1.8974,34.3079 1.8974,5.6921 16.2053,20.0000" stroke="#0000ff" stroke-width="0.01" fill="none" clip-path="url(#cp003e3)"/>
      <polygon points="2.8460,31.4619 2.8460,8.5381 14.3079,20.0000" stroke="#0000ff" stroke-width="0.01" fill="none" clip-path="url(#cp003e3)"/>
      <polygon points="3.7947,28.6158 3.7947,11.3842 12.4105,20.0000" stroke="#0000ff" stroke-width="0.01" fill="none" clip-path="url(#cp003e3)"/>
      <polygon points="4.7434,25.7698 4.7434,14.2302 10.5132,20.0000" stroke="#0000ff" stroke-width="0.01" fill="none" clip-path="url(#cp003e3)"/>
      <polygon points="5.6921,22.9237 5.6921,17.0763 8.6158,20.0000" stroke="#0000ff" stroke-width="0.01" fill="none" clip-path="url(#cp003e3)"/>
      <polygon points="6.6408,20.0777 6.6408,19.9223 6.7184,20.0000" stroke="#0000ff" stroke-width="0.01" fill="none" clip-path="url(#cp003e3)"/>
    </g>
    <path d="M 0.0000,0.0000 L 15.4250,0.0000 L 15.4250,5.1500 L 24.5750,5.1500 L 24.5750,0.0000 L 40.0000,0.0000 L 40.0000,13.0000 L 45.0000,13.0000 L 45.0000,27.0000 L 40.0000,27.0000 L 40.0000,40.0000 L 0.0000,40.0000 L 0.0000,28.3250 L 5.1500,28.3250 L 5.1500,11.6750 L 0.0000,11.6750 Z" fill="none" stroke="#ff0000" stroke-width="0.01" stroke-linecap="square" stroke-linejoin="miter"/>
  </g>
  <!-- piece 004  T:Ink  R:Gold  B:Ink/flat  L:Slate -->
  <g transform="translate(159.0000,6.0000)">
    <defs>
      <clipPath id="cp004e3">
        <polygon points="0.0000,40.0000 0.0000,0.0000 20.0000,20.0000"/>
      </clipPath>
    </defs>
    <g class="engrave">
      <line x1="37.0000" y1="3.0000" x2="40.0000" y2="3.0000" stroke="#0000ff" stroke-width="0.01" fill="none"/>
      <line x1="34.0000" y1="6.0000" x2="40.0000" y2="6.0000" stroke="#0000ff" stroke-width="0.01" fill="none"/>
      <line x1="31.0000" y1="9.0000" x2="40.0000" y2="9.0000" stroke="#0000ff" stroke-width="0.01" fill="none"/>
      <line x1="28.0000" y1="12.0000" x2="40.0000" y2="12.0000" stroke="#0000ff" stroke-width="0.01" fill="none"/>
      <line x1="25.0000" y1="15.0000" x2="40.0000" y2="15.0000" stroke="#0000ff" stroke-width="0.01" fill="none"/>
      <line x1="22.0000" y1="18.0000" x2="40.0000" y2="18.0000" stroke="#0000ff" stroke-width="0.01" fill="none"/>
      <line x1="21.0000" y1="21.0000" x2="40.0000" y2="21.0000" stroke="#0000ff" stroke-width="0.01" fill="none"/>
      <line x1="24.0000" y1="24.0000" x2="40.0000" y2="24.0000" stroke="#0000ff" stroke-width="0.01" fill="none"/>
      <line x1="27.0000" y1="27.0000" x2="40.0000" y2="27.0000" stroke="#0000ff" stroke-width="0.01" fill="none"/>
      <line x1="30.0000" y1="30.0000" x2="40.0000" y2="30.0000" stroke="#0000ff" stroke-width="0.01" fill="none"/>
      <line x1="33.0000" y1="33.0000" x2="40.0000" y2="33.0000" stroke="#0000ff" stroke-width="0.01" fill="none"/>
      <line x1="36.0000" y1="36.0000" x2="40.0000" y2="36.0000" stroke="#0000ff" stroke-width="0.01" fill="none"/>
      <line x1="39.0000" y1="39.0000" x2="40.0000" y2="39.0000" stroke="#0000ff" stroke-width="0.01" fill="none"/>
      <line x1="21.0000" y1="19.0000" x2="21.0000" y2="21.0000" stroke="#0000ff" stroke-width="0.01" fill="none"/>
      <line x1="24.0000" y1="16.0000" x2="24.0000" y2="24.0000" stroke="#0000ff" stroke-width="0.01" fill="none"/>
      <line x1="27.0000" y1="13.0000" x2="27.0000" y2="27.0000" stroke="#0000ff" stroke-width="0.01" fill="none"/>
      <line x1="30.0000" y1="10.0000" x2="30.0000" y2="30.0000" stroke="#0000ff" stroke-width="0.01" fill="none"/>
      <line x1="33.0000" y1="7.0000" x2="33.0000" y2="33.0000" stroke="#0000ff" stroke-width="0.01" fill="none"/>
      <line x1="36.0000" y1="4.0000" x2="36.0000" y2="36.0000" stroke="#0000ff" stroke-width="0.01" fill="none"/>
      <line x1="39.0000" y1="1.0000" x2="39.0000" y2="39.0000" stroke="#0000ff" stroke-width="0.01" fill="none"/>
      <circle cx="20.0000" cy="20.0000" r="3.0000" stroke="#0000ff" stroke-width="0.01" fill="none" clip-path="url(#cp004e3)"/>
      <circle cx="20.0000" cy="20.0000" r="6.0000" stroke="#0000ff" stroke-width="0.01" fill="none" clip-path="url(#cp004e3)"/>
      <circle cx="20.0000" cy="20.0000" r="9.0000" stroke="#0000ff" stroke-width="0.01" fill="none" clip-path="url(#cp004e3)"/>
      <circle cx="20.0000" cy="20.0000" r="12.0000" stroke="#0000ff" stroke-width="0.01" fill="none" clip-path="url(#cp004e3)"/>
      <circle cx="20.0000" cy="20.0000" r="15.0000" stroke="#0000ff" stroke-width="0.01" fill="none" clip-path="url(#cp004e3)"/>
      <circle cx="20.0000" cy="20.0000" r="18.0000" stroke="#0000ff" stroke-width="0.01" fill="none" clip-path="url(#cp004e3)"/>
      <circle cx="20.0000" cy="20.0000" r="21.0000" stroke="#0000ff" stroke-width="0.01" fill="none" clip-path="url(#cp004e3)"/>
      <circle cx="20.0000" cy="20.0000" r="24.0000" stroke="#0000ff" stroke-width="0.01" fill="none" clip-path="url(#cp004e3)"/>
      <circle cx="20.0000" cy="20.0000" r="27.0000" stroke="#0000ff" stroke-width="0.01" fill="none" clip-path="url(#cp004e3)"/>
      <circle cx="20.0000" cy="20.0000" r="30.0000" stroke="#0000ff" stroke-width="0.01" fill="none" clip-path="url(#cp004e3)"/>
      <circle cx="20.0000" cy="20.0000" r="33.0000" stroke="#0000ff" stroke-width="0.01" fill="none" clip-path="url(#cp004e3)"/>
      <circle cx="20.0000" cy="20.0000" r="36.0000" stroke="#0000ff" stroke-width="0.01" fill="none" clip-path="url(#cp004e3)"/>
      <circle cx="20.0000" cy="20.0000" r="39.0000" stroke="#0000ff" stroke-width="0.01" fill="none" clip-path="url(#cp004e3)"/>
      <circle cx="20.0000" cy="20.0000" r="42.0000" stroke="#0000ff" stroke-width="0.01" fill="none" clip-path="url(#cp004e3)"/>
      <circle cx="20.0000" cy="20.0000" r="45.0000" stroke="#0000ff" stroke-width="0.01" fill="none" clip-path="url(#cp004e3)"/>
      <circle cx="20.0000" cy="20.0000" r="48.0000" stroke="#0000ff" stroke-width="0.01" fill="none" clip-path="url(#cp004e3)"/>
      <circle cx="20.0000" cy="20.0000" r="51.0000" stroke="#0000ff" stroke-width="0.01" fill="none" clip-path="url(#cp004e3)"/>
      <circle cx="20.0000" cy="20.0000" r="54.0000" stroke="#0000ff" stroke-width="0.01" fill="none" clip-path="url(#cp004e3)"/>
    </g>
    <path d="M 0.0000,0.0000 L 17.9250,0.0000 L 17.9250,5.1500 L 22.0750,5.1500 L 22.0750,0.0000 L 40.0000,0.0000 L 40.0000,14.2500 L 45.0000,14.2500 L 45.0000,25.7500 L 40.0000,25.7500 L 40.0000,40.0000 L 0.0000,40.0000 L 0.0000,27.0750 L 5.1500,27.0750 L 5.1500,12.9250 L 0.0000,12.9250 Z" fill="none" stroke="#ff0000" stroke-width="0.01" stroke-linecap="square" stroke-linejoin="miter"/>
  </g>
  <!-- piece 005  T:Red  R:Slate  B:Ink/flat  L:Gold -->
  <g transform="translate(210.0000,6.0000)">
    <defs>
      <clipPath id="cp005e1">
        <polygon points="40.0000,0.0000 40.0000,40.0000 20.0000,20.0000"/>
      </clipPath>
    </defs>
    <g class="engrave">
      <line x1="3.0000" y1="0.0000" x2="3.0000" y2="3.0000" stroke="#0000ff" stroke-width="0.01" fill="none"/>
      <line x1="6.0000" y1="0.0000" x2="6.0000" y2="6.0000" stroke="#0000ff" stroke-width="0.01" fill="none"/>
      <line x1="9.0000" y1="0.0000" x2="9.0000" y2="9.0000" stroke="#0000ff" stroke-width="0.01" fill="none"/>
      <line x1="12.0000" y1="0.0000" x2="12.0000" y2="12.0000" stroke="#0000ff" stroke-width="0.01" fill="none"/>
      <line x1="15.0000" y1="0.0000" x2="15.0000" y2="15.0000" stroke="#0000ff" stroke-width="0.01" fill="none"/>
      <line x1="18.0000" y1="0.0000" x2="18.0000" y2="18.0000" stroke="#0000ff" stroke-width="0.01" fill="none"/>
      <line x1="21.0000" y1="0.0000" x2="21.0000" y2="19.0000" stroke="#0000ff" stroke-width="0.01" fill="none"/>
      <line x1="24.0000" y1="0.0000" x2="24.0000" y2="16.0000" stroke="#0000ff" stroke-width="0.01" fill="none"/>
      <line x1="27.0000" y1="0.0000" x2="27.0000" y2="13.0000" stroke="#0000ff" stroke-width="0.01" fill="none"/>
      <line x1="30.0000" y1="0.0000" x2="30.0000" y2="10.0000" stroke="#0000ff" stroke-width="0.01" fill="none"/>
      <line x1="33.0000" y1="0.0000" x2="33.0000" y2="7.0000" stroke="#0000ff" stroke-width="0.01" fill="none"/>
      <line x1="36.0000" y1="0.0000" x2="36.0000" y2="4.0000" stroke="#0000ff" stroke-width="0.01" fill="none"/>
      <line x1="39.0000" y1="0.0000" x2="39.0000" y2="1.0000" stroke="#0000ff" stroke-width="0.01" fill="none"/>
      <circle cx="20.0000" cy="20.0000" r="3.0000" stroke="#0000ff" stroke-width="0.01" fill="none" clip-path="url(#cp005e1)"/>
      <circle cx="20.0000" cy="20.0000" r="6.0000" stroke="#0000ff" stroke-width="0.01" fill="none" clip-path="url(#cp005e1)"/>
      <circle cx="20.0000" cy="20.0000" r="9.0000" stroke="#0000ff" stroke-width="0.01" fill="none" clip-path="url(#cp005e1)"/>
      <circle cx="20.0000" cy="20.0000" r="12.0000" stroke="#0000ff" stroke-width="0.01" fill="none" clip-path="url(#cp005e1)"/>
      <circle cx="20.0000" cy="20.0000" r="15.0000" stroke="#0000ff" stroke-width="0.01" fill="none" clip-path="url(#cp005e1)"/>
      <circle cx="20.0000" cy="20.0000" r="18.0000" stroke="#0000ff" stroke-width="0.01" fill="none" clip-path="url(#cp005e1)"/>
      <circle cx="20.0000" cy="20.0000" r="21.0000" stroke="#0000ff" stroke-width="0.01" fill="none" clip-path="url(#cp005e1)"/>
      <circle cx="20.0000" cy="20.0000" r="24.0000" stroke="#0000ff" stroke-width="0.01" fill="none" clip-path="url(#cp005e1)"/>
      <circle cx="20.0000" cy="20.0000" r="27.0000" stroke="#0000ff" stroke-width="0.01" fill="none" clip-path="url(#cp005e1)"/>
      <circle cx="20.0000" cy="20.0000" r="30.0000" stroke="#0000ff" stroke-width="0.01" fill="none" clip-path="url(#cp005e1)"/>
      <circle cx="20.0000" cy="20.0000" r="33.0000" stroke="#0000ff" stroke-width="0.01" fill="none" clip-path="url(#cp005e1)"/>
      <circle cx="20.0000" cy="20.0000" r="36.0000" stroke="#0000ff" stroke-width="0.01" fill="none" clip-path="url(#cp005e1)"/>
      <circle cx="20.0000" cy="20.0000" r="39.0000" stroke="#0000ff" stroke-width="0.01" fill="none" clip-path="url(#cp005e1)"/>
      <circle cx="20.0000" cy="20.0000" r="42.0000" stroke="#0000ff" stroke-width="0.01" fill="none" clip-path="url(#cp005e1)"/>
      <circle cx="20.0000" cy="20.0000" r="45.0000" stroke="#0000ff" stroke-width="0.01" fill="none" clip-path="url(#cp005e1)"/>
      <circle cx="20.0000" cy="20.0000" r="48.0000" stroke="#0000ff" stroke-width="0.01" fill="none" clip-path="url(#cp005e1)"/>
      <circle cx="20.0000" cy="20.0000" r="51.0000" stroke="#0000ff" stroke-width="0.01" fill="none" clip-path="url(#cp005e1)"/>
      <circle cx="20.0000" cy="20.0000" r="54.0000" stroke="#0000ff" stroke-width="0.01" fill="none" clip-path="url(#cp005e1)"/>
      <line x1="0.0000" y1="3.0000" x2="3.0000" y2="3.0000" stroke="#0000ff" stroke-width="0.01" fill="none"/>
      <line x1="0.0000" y1="6.0000" x2="6.0000" y2="6.0000" stroke="#0000ff" stroke-width="0.01" fill="none"/>
      <line x1="0.0000" y1="9.0000" x2="9.0000" y2="9.0000" stroke="#0000ff" stroke-width="0.01" fill="none"/>
      <line x1="0.0000" y1="12.0000" x2="12.0000" y2="12.0000" stroke="#0000ff" stroke-width="0.01" fill="none"/>
      <line x1="0.0000" y1="15.0000" x2="15.0000" y2="15.0000" stroke="#0000ff" stroke-width="0.01" fill="none"/>
      <line x1="0.0000" y1="18.0000" x2="18.0000" y2="18.0000" stroke="#0000ff" stroke-width="0.01" fill="none"/>
      <line x1="0.0000" y1="21.0000" x2="19.0000" y2="21.0000" stroke="#0000ff" stroke-width="0.01" fill="none"/>
      <line x1="0.0000" y1="24.0000" x2="16.0000" y2="24.0000" stroke="#0000ff" stroke-width="0.01" fill="none"/>
      <line x1="0.0000" y1="27.0000" x2="13.0000" y2="27.0000" stroke="#0000ff" stroke-width="0.01" fill="none"/>
      <line x1="0.0000" y1="30.0000" x2="10.0000" y2="30.0000" stroke="#0000ff" stroke-width="0.01" fill="none"/>
      <line x1="0.0000" y1="33.0000" x2="7.0000" y2="33.0000" stroke="#0000ff" stroke-width="0.01" fill="none"/>
      <line x1="0.0000" y1="36.0000" x2="4.0000" y2="36.0000" stroke="#0000ff" stroke-width="0.01" fill="none"/>
      <line x1="0.0000" y1="39.0000" x2="1.0000" y2="39.0000" stroke="#0000ff" stroke-width="0.01" fill="none"/>
      <line x1="0.0000" y1="0.0000" x2="0.0000" y2="40.0000" stroke="#0000ff" stroke-width="0.01" fill="none"/>
      <line x1="3.0000" y1="3.0000" x2="3.0000" y2="37.0000" stroke="#0000ff" stroke-width="0.01" fill="none"/>
      <line x1="6.0000" y1="6.0000" x2="6.0000" y2="34.0000" stroke="#0000ff" stroke-width="0.01" fill="none"/>
      <line x1="9.0000" y1="9.0000" x2="9.0000" y2="31.0000" stroke="#0000ff" stroke-width="0.01" fill="none"/>
      <line x1="12.0000" y1="12.0000" x2="12.0000" y2="28.0000" stroke="#0000ff" stroke-width="0.01" fill="none"/>
      <line x1="15.0000" y1="15.0000" x2="15.0000" y2="25.0000" stroke="#0000ff" stroke-width="0.01" fill="none"/>
      <line x1="18.0000" y1="18.0000" x2="18.0000" y2="22.0000" stroke="#0000ff" stroke-width="0.01" fill="none"/>
    </g>
    <path d="M 0.0000,0.0000 L 16.6750,0.0000 L 16.6750,5.1500 L 23.3250,5.1500 L 23.3250,0.0000 L 40.0000,0.0000 L 40.0000,13.0000 L 45.0000,13.0000 L 45.0000,27.0000 L 40.0000,27.0000 L 40.0000,40.0000 L 0.0000,40.0000 L 0.0000,25.8250 L 5.1500,25.8250 L 5.1500,14.1750 L 0.0000,14.1750 Z" fill="none" stroke="#ff0000" stroke-width="0.01" stroke-linecap="square" stroke-linejoin="miter"/>
  </g>
  <!-- piece 006  T:Red  R:Plum/flat  B:Ink/flat  L:Slate -->
  <g transform="translate(6.0000,57.0000)">
    <defs>
      <clipPath id="cp006e1">
        <polygon points="40.0000,0.0000 40.0000,40.0000 20.0000,20.0000"/>
      </clipPath>
      <clipPath id="cp006e3">
        <polygon points="0.0000,40.0000 0.0000,0.0000 20.0000,20.0000"/>
      </clipPath>
    </defs>
    <g class="engrave">
      <line x1="3.0000" y1="0.0000" x2="3.0000" y2="3.0000" stroke="#0000ff" stroke-width="0.01" fill="none"/>
      <line x1="6.0000" y1="0.0000" x2="6.0000" y2="6.0000" stroke="#0000ff" stroke-width="0.01" fill="none"/>
      <line x1="9.0000" y1="0.0000" x2="9.0000" y2="9.0000" stroke="#0000ff" stroke-width="0.01" fill="none"/>
      <line x1="12.0000" y1="0.0000" x2="12.0000" y2="12.0000" stroke="#0000ff" stroke-width="0.01" fill="none"/>
      <line x1="15.0000" y1="0.0000" x2="15.0000" y2="15.0000" stroke="#0000ff" stroke-width="0.01" fill="none"/>
      <line x1="18.0000" y1="0.0000" x2="18.0000" y2="18.0000" stroke="#0000ff" stroke-width="0.01" fill="none"/>
      <line x1="21.0000" y1="0.0000" x2="21.0000" y2="19.0000" stroke="#0000ff" stroke-width="0.01" fill="none"/>
      <line x1="24.0000" y1="0.0000" x2="24.0000" y2="16.0000" stroke="#0000ff" stroke-width="0.01" fill="none"/>
      <line x1="27.0000" y1="0.0000" x2="27.0000" y2="13.0000" stroke="#0000ff" stroke-width="0.01" fill="none"/>
      <line x1="30.0000" y1="0.0000" x2="30.0000" y2="10.0000" stroke="#0000ff" stroke-width="0.01" fill="none"/>
      <line x1="33.0000" y1="0.0000" x2="33.0000" y2="7.0000" stroke="#0000ff" stroke-width="0.01" fill="none"/>
      <line x1="36.0000" y1="0.0000" x2="36.0000" y2="4.0000" stroke="#0000ff" stroke-width="0.01" fill="none"/>
      <line x1="39.0000" y1="0.0000" x2="39.0000" y2="1.0000" stroke="#0000ff" stroke-width="0.01" fill="none"/>
      <polygon points="40.0000,0.0000 40.0000,40.0000 20.0000,20.0000" stroke="#0000ff" stroke-width="0.01" fill="none" clip-path="url(#cp006e1)"/>
      <polygon points="39.0513,2.8460 39.0513,37.1540 21.8974,20.0000" stroke="#0000ff" stroke-width="0.01" fill="none" clip-path="url(#cp006e1)"/>
      <polygon points="38.1026,5.6921 38.1026,34.3079 23.7947,20.0000" stroke="#0000ff" stroke-width="0.01" fill="none" clip-path="url(#cp006e1)"/>
      <polygon points="37.1540,8.5381 37.1540,31.4619 25.6921,20.0000" stroke="#0000ff" stroke-width="0.01" fill="none" clip-path="url(#cp006e1)"/>
      <polygon points="36.2053,11.3842 36.2053,28.6158 27.5895,20.0000" stroke="#0000ff" stroke-width="0.01" fill="none" clip-path="url(#cp006e1)"/>
      <polygon points="35.2566,14.2302 35.2566,25.7698 29.4868,20.0000" stroke="#0000ff" stroke-width="0.01" fill="none" clip-path="url(#cp006e1)"/>
      <polygon points="34.3079,17.0763 34.3079,22.9237 31.3842,20.0000" stroke="#0000ff" stroke-width="0.01" fill="none" clip-path="url(#cp006e1)"/>
      <polygon points="33.3592,19.9223 33.3592,20.0777 33.2816,20.0000" stroke="#0000ff" stroke-width="0.01" fill="none" clip-path="url(#cp006e1)"/>
      <circle cx="20.0000" cy="20.0000" r="3.0000" stroke="#0000ff" stroke-width="0.01" fill="none" clip-path="url(#cp006e3)"/>
      <circle cx="20.0000" cy="20.0000" r="6.0000" stroke="#0000ff" stroke-width="0.01" fill="none" clip-path="url(#cp006e3)"/>
      <circle cx="20.0000" cy="20.0000" r="9.0000" stroke="#0000ff" stroke-width="0.01" fill="none" clip-path="url(#cp006e3)"/>
      <circle cx="20.0000" cy="20.0000" r="12.0000" stroke="#0000ff" stroke-width="0.01" fill="none" clip-path="url(#cp006e3)"/>
      <circle cx="20.0000" cy="20.0000" r="15.0000" stroke="#0000ff" stroke-width="0.01" fill="none" clip-path="url(#cp006e3)"/>
      <circle cx="20.0000" cy="20.0000" r="18.0000" stroke="#0000ff" stroke-width="0.01" fill="none" clip-path="url(#cp006e3)"/>
      <circle cx="20.0000" cy="20.0000" r="21.0000" stroke="#0000ff" stroke-width="0.01" fill="none" clip-path="url(#cp006e3)"/>
      <circle cx="20.0000" cy="20.0000" r="24.0000" stroke="#0000ff" stroke-width="0.01" fill="none" clip-path="url(#cp006e3)"/>
      <circle cx="20.0000" cy="20.0000" r="27.0000" stroke="#0000ff" stroke-width="0.01" fill="none" clip-path="url(#cp006e3)"/>
      <circle cx="20.0000" cy="20.0000" r="30.0000" stroke="#0000ff" stroke-width="0.01" fill="none" clip-path="url(#cp006e3)"/>
      <circle cx="20.0000" cy="20.0000" r="33.0000" stroke="#0000ff" stroke-width="0.01" fill="none" clip-path="url(#cp006e3)"/>
      <circle cx="20.0000" cy="20.0000" r="36.0000" stroke="#0000ff" stroke-width="0.01" fill="none" clip-path="url(#cp006e3)"/>
      <circle cx="20.0000" cy="20.0000" r="39.0000" stroke="#0000ff" stroke-width="0.01" fill="none" clip-path="url(#cp006e3)"/>
      <circle cx="20.0000" cy="20.0000" r="42.0000" stroke="#0000ff" stroke-width="0.01" fill="none" clip-path="url(#cp006e3)"/>
      <circle cx="20.0000" cy="20.0000" r="45.0000" stroke="#0000ff" stroke-width="0.01" fill="none" clip-path="url(#cp006e3)"/>
      <circle cx="20.0000" cy="20.0000" r="48.0000" stroke="#0000ff" stroke-width="0.01" fill="none" clip-path="url(#cp006e3)"/>
      <circle cx="20.0000" cy="20.0000" r="51.0000" stroke="#0000ff" stroke-width="0.01" fill="none" clip-path="url(#cp006e3)"/>
      <circle cx="20.0000" cy="20.0000" r="54.0000" stroke="#0000ff" stroke-width="0.01" fill="none" clip-path="url(#cp006e3)"/>
    </g>
    <path d="M 0.0000,0.0000 L 16.6750,0.0000 L 16.6750,5.1500 L 23.3250,5.1500 L 23.3250,0.0000 L 40.0000,0.0000 L 40.0000,40.0000 L 0.0000,40.0000 L 0.0000,27.0750 L 5.1500,27.0750 L 5.1500,12.9250 L 0.0000,12.9250 Z" fill="none" stroke="#ff0000" stroke-width="0.01" stroke-linecap="square" stroke-linejoin="miter"/>
  </g>
</svg>