<?xml version="1.0" encoding="utf-8"?>
<svg xmlns="http://www.w3.org/2000/svg"
     width="170.000mm" height="164.000mm"
     viewBox="0 0 170.0000 164.0000">
  <title>Wang Tile — Paint Colour Key</title>
  <style>
    .bg    { fill: #f5f0e8; }
    .card  { fill: #ede7d9; stroke: #c8bfb0; stroke-width: 0.4; }
    .tbg   { fill: #ffffff; stroke: #1a1410; stroke-width: 0.3; }
    .tdiv  { stroke: #d0c8bc; stroke-width: 0.25; }
    .hdr   { font: bold 5.5px/1 sans-serif; fill: #1a1410; letter-spacing: 0.05em; }
    .name  { font: bold 4.8px/1 sans-serif; fill: #1a1410; }
    .desc  { font: 3.4px/1 sans-serif; fill: #6b5e4e; }
  </style>
  <rect width="170.0000" height="164.0000" class="bg"/>
  <text x="85.0000" y="18.0000" class="hdr" text-anchor="middle">WANG TILE — PAINT COLOUR KEY</text>
  <rect x="10.0000" y="22.0000" width="50.0000" height="66.0000" class="card" rx="2"/>
  <rect x="17.0000" y="29.0000" width="36.0000" height="36.0000" class="tbg"/>
  <line x1="17.0000" y1="29.0000" x2="35.0000" y2="47.0000" class="tdiv"/>
  <line x1="53.0000" y1="29.0000" x2="35.0000" y2="47.0000" class="tdiv"/>
  <line x1="53.0000" y1="65.0000" x2="35.0000" y2="47.0000" class="tdiv"/>
  <line x1="17.0000" y1="65.0000" x2="35.0000" y2="47.0000" class="tdiv"/>
  <circle cx="23.0000" cy="73.0000" r="4.5000" fill="#1a1410" stroke="#1a1410" stroke-width="0.3"/>
  <text x="30.5000" y="73.0000" class="name">Ink</text>
  <text x="30.5000" y="78.0000" class="desc">blank</text>
  <rect x="60.0000" y="22.0000" width="50.0000" height="66.0000" class="card" rx="2"/>
  <rect x="67.0000" y="29.0000" width="36.0000" height="36.0000" class="tbg"/>
  <line x1="67.0000" y1="29.0000" x2="85.0000" y2="47.0000" class="tdiv"/>
  <line x1="103.0000" y1="29.0000" x2="85.0000" y2="47.0000" class="tdiv"/>
  <line x1="103.0000" y1="65.0000" x2="85.0000" y2="47.0000" class="tdiv"/>
  <line x1="67.0000" y1="65.0000" x2="85.0000" y2="47.0000" class="tdiv"/>
  <g transform="translate(67.0000,29.0000)">
    <line x1="3.0000" y1="0.0000" x2="3.0000" y2="3.0000" stroke="#0000ff" stroke-width="0.1" fill="none"/>
    <line x1="6.0000" y1="0.0000" x2="6.0000" y2="6.0000" stroke="#0000ff" stroke-width="0.1" fill="none"/>
    <line x1="9.0000" y1="0.0000" x2="9.0000" y2="9.0000" stroke="#0000ff" stroke-width="0.1" fill="none"/>
    <line x1="12.0000" y1="0.0000" x2="12.0000" y2="12.0000" stroke="#0000ff" stroke-width="0.1" fill="none"/>
    <line x1="15.0000" y1="0.0000" x2="15.0000" y2="15.0000" stroke="#0000ff" stroke-width="0.1" fill="none"/>
    <line x1="18.0000" y1="0.0000" x2="18.0000" y2="18.0000" stroke="#0000ff" stroke-width="0.1" fill="none"/>
    <line x1="21.0000" y1="0.0000" x2="21.0000" y2="15.0000" stroke="#0000ff" stroke-width="0.1" fill="none"/>
    <line x1="24.0000" y1="0.0000" x2="24.0000" y2="12.0000" stroke="#0000ff" stroke-width="0.1" fill="none"/>
    <line x1="27.0000" y1="0.0000" x2="27.0000" y2="9.0000" stroke="#0000ff" stroke-width="0.1" fill="none"/>
    <line x1="30.0000" y1="0.0000" x2="30.0000" y2="6.0000" stroke="#0000ff" stroke-width="0.1" fill="none"/>
    <line x1="33.0000" y1="0.0000" x2="33.0000" y2="3.0000" stroke="#0000ff" stroke-width="0.1" fill="none"/>
    <line x1="21.0000" y1="15.0000" x2="21.0000" y2="21.0000" stroke="#0000ff" stroke-width="0.1" fill="none"/>
    <line x1="24.0000" y1="12.0000" x2="24.0000" y2="24.0000" stroke="#0000ff" stroke-width="0.1" fill="none"/>
    <line x1="27.0000" y1="9.0000" x2="27.0000" y2="27.0000" stroke="#0000ff" stroke-width="0.1" fill="none"/>
    <line x1="30.0000" y1="6.0000" x2="30.0000" y2="30.0000" stroke="#0000ff" stroke-width="0.1" fill="none"/>
    <line x1="33.0000" y1="3.0000" x2="33.0000" y2="33.0000" stroke="#0000ff" stroke-width="0.1" fill="none"/>
    <line x1="36.0000" y1="0.0000" x2="36.0000" y2="36.0000" stroke="#0000ff" stroke-width="0.1" fill="none"/>
    <line x1="3.0000" y1="33.0000" x2="3.0000" y2="36.0000" stroke="#0000ff" stroke-width="0.1" fill="none"/>
    <line x1="6.0000" y1="30.0000" x2="6.0000" y2="36.0000" stroke="#0000ff" stroke-width="0.1" fill="none"/>
    <line x1="9.0000" y1="27.0000" x2="9.0000" y2="36.0000" stroke="#0000ff" stroke-width="0.1" fill="none"/>
    <line x1="12.0000" y1="24.0000" x2="12.0000" y2="36.0000" stroke="#0000ff" stroke-width="0.1" fill="none"/>
    <line x1="15.0000" y1="21.0000" x2="15.0000" y2="36.0000" stroke="#0000ff" stroke-width="0.1" fill="none"/>
    <line x1="18.0000" y1="18.0000" x2="18.0000" y2="36.0000" stroke="#0000ff" stroke-width="0.1" fill="none"/>
    <line x1="21.0000" y1="21.0000" x2="21.0000" y2="36.0000" stroke="#0000ff" stroke-width="0.1" fill="none"/>
    <line x1="24.0000" y1="24.0000" x2="24.0000" y2="36.0000" stroke="#0000ff" stroke-width="0.1" fill="none"/>
    <line x1="27.0000" y1="27.0000" x2="27.0000" y2="36.0000" stroke="#0000ff" stroke-width="0.1" fill="none"/>
    <line x1="30.0000" y1="30.0000" x2="30.0000" y2="36.0000" stroke="#0000ff" stroke-width="0.1" fill="none"/>
    <line x1="33.0000" y1="33.0000" x2="33.0000" y2="36.0000" stroke="#0000ff" stroke-width="0.1" fill="none"/>
    <line x1="0.0000" y1="0.0000" x2="0.0000" y2="36.0000" stroke="#0000ff" stroke-width="0.1" fill="none"/>
    <line x1="3.0000" y1="3.0000" x2="3.0000" y2="33.0000" stroke="#0000ff" stroke-width="0.1" fill="none"/>
    <line x1="6.0000" y1="6.0000" x2="6.0000" y2="30.0000" stroke="#0000ff" stroke-width="0.1" fill="none"/>
    <line x1="9.0000" y1="9.0000" x2="9.0000" y2="27.0000" stroke="#0000ff" stroke-width="0.1" fill="none"/>
    <line x1="12.0000" y1="12.0000" x2="12.0000" y2="24.0000" stroke="#0000ff" stroke-width="0.1" fill="none"/>
    <line x1="15.0000" y1="15.0000" x2="15.0000" y2="21.0000" stroke="#0000ff" stroke-width="0.1" fill="none"/>
  </g>
  <circle cx="73.0000" cy="73.0000" r="4.5000" fill="#c0392b" stroke="#1a1410" stroke-width="0.3"/>
  <text x="80.5000" y="73.0000" class="name">Red</text>
  <text x="80.5000" y="78.0000" class="desc">vertical lines</text>
  <rect x="110.0000" y="22.0000" width="50.0000" height="66.0000" class="card" rx="2"/>
  <rect x="117.0000" y="29.0000" width="36.0000" height="36.0000" class="tbg"/>
  <line x1="117.0000" y1="29.0000" x2="135.0000" y2="47.0000" class="tdiv"/>
  <line x1="153.0000" y1="29.0000" x2="135.0000" y2="47.0000" class="tdiv"/>
  <line x1="153.0000" y1="65.0000" x2="135.0000" y2="47.0000" class="tdiv"/>
  <line x1="117.0000" y1="65.0000" x2="135.0000" y2="47.0000" class="tdiv"/>
  <g transform="translate(117.0000,29.0000)">
    <line x1="31.7574" y1="0.0000" x2="33.8787" y2="2.1213" stroke="#0000ff" stroke-width="0.1" fill="none"/>
    <line x1="27.5147" y1="0.0000" x2="31.7574" y2="4.2426" stroke="#0000ff" stroke-width="0.1" fill="none"/>
    <line x1="23.2721" y1="0.0000" x2="29.6360" y2="6.3640" stroke="#0000ff" stroke-width="0.1" fill="none"/>
    <line x1="19.0294" y1="0.0000" x2="27.5147" y2="8.4853" stroke="#0000ff" stroke-width="0.1" fill="none"/>
    <line x1="14.7868" y1="0.0000" x2="25.3934" y2="10.6066" stroke="#0000ff" stroke-width="0.1" fill="none"/>
    <line x1="10.5442" y1="-0.0000" x2="23.2721" y2="12.7279" stroke="#0000ff" stroke-width="0.1" fill="none"/>
    <line x1="6.3015" y1="0.0000" x2="21.1508" y2="14.8492" stroke="#0000ff" stroke-width="0.1" fill="none"/>
    <line x1="2.0589" y1="0.0000" x2="19.0294" y2="16.9706" stroke="#0000ff" stroke-width="0.1" fill="none"/>
    <line x1="33.8787" y1="2.1213" x2="36.0000" y2="4.2426" stroke="#0000ff" stroke-width="0.1" fill="none"/>
    <line x1="31.7574" y1="4.2426" x2="36.0000" y2="8.4853" stroke="#0000ff" stroke-width="0.1" fill="none"/>
    <line x1="29.6360" y1="6.3640" x2="36.0000" y2="12.7279" stroke="#0000ff" stroke-width="0.1" fill="none"/>
    <line x1="27.5147" y1="8.4853" x2="36.0000" y2="16.9706" stroke="#0000ff" stroke-width="0.1" fill="none"/>
    <line x1="25.3934" y1="10.6066" x2="36.0000" y2="21.2132" stroke="#0000ff" stroke-width="0.1" fill="none"/>
    <line x1="23.2721" y1="12.7279" x2="36.0000" y2="25.4558" stroke="#0000ff" stroke-width="0.1" fill="none"/>
    <line x1="21.1508" y1="14.8492" x2="36.0000" y2="29.6985" stroke="#0000ff" stroke-width="0.1" fill="none"/>
    <line x1="19.0294" y1="16.9706" x2="36.0000" y2="33.9411" stroke="#0000ff" stroke-width="0.1" fill="none"/>
    <line x1="16.9081" y1="19.0919" x2="33.8162" y2="36.0000" stroke="#0000ff" stroke-width="0.1" fill="none"/>
    <line x1="14.7868" y1="21.2132" x2="29.5736" y2="36.0000" stroke="#0000ff" stroke-width="0.1" fill="none"/>
    <line x1="12.6655" y1="23.3345" x2="25.3310" y2="36.0000" stroke="#0000ff" stroke-width="0.1" fill="none"/>
    <line x1="10.5442" y1="25.4558" x2="21.0883" y2="36.0000" stroke="#0000ff" stroke-width="0.1" fill="none"/>
    <line x1="8.4228" y1="27.5772" x2="16.8457" y2="36.0000" stroke="#0000ff" stroke-width="0.1" fill="none"/>
    <line x1="6.3015" y1="29.6985" x2="12.6030" y2="36.0000" stroke="#0000ff" stroke-width="0.1" fill="none"/>
    <line x1="4.1802" y1="31.8198" x2="8.3604" y2="36.0000" stroke="#0000ff" stroke-width="0.1" fill="none"/>
    <line x1="2.0589" y1="33.9411" x2="4.1177" y2="36.0000" stroke="#0000ff" stroke-width="0.1" fill="none"/>
    <line x1="0.0000" y1="2.1838" x2="16.9081" y2="19.0919" stroke="#0000ff" stroke-width="0.1" fill="none"/>
    <line x1="0.0000" y1="6.4264" x2="14.7868" y2="21.2132" stroke="#0000ff" stroke-width="0.1" fill="none"/>
    <line x1="0.0000" y1="10.6690" x2="12.6655" y2="23.3345" stroke="#0000ff" stroke-width="0.1" fill="none"/>
    <line x1="0.0000" y1="14.9117" x2="10.5442" y2="25.4558" stroke="#0000ff" stroke-width="0.1" fill="none"/>
    <line x1="0.0000" y1="19.1543" x2="8.4228" y2="27.5772" stroke="#0000ff" stroke-width="0.1" fill="none"/>
    <line x1="0.0000" y1="23.3970" x2="6.3015" y2="29.6985" stroke="#0000ff" stroke-width="0.1" fill="none"/>
    <line x1="0.0000" y1="27.6396" x2="4.1802" y2="31.8198" stroke="#0000ff" stroke-width="0.1" fill="none"/>
    <line x1="0.0000" y1="31.8823" x2="2.0589" y2="33.9411" stroke="#0000ff" stroke-width="0.1" fill="none"/>
  </g>
  <circle cx="123.0000" cy="73.0000" r="4.5000" fill="#1a9090" stroke="#1a1410" stroke-width="0.3"/>
  <text x="130.5000" y="73.0000" class="name">Teal</text>
  <text x="130.5000" y="78.0000" class="desc">diagonal lines</text>
  <rect x="10.0000" y="88.0000" width="50.0000" height="66.0000" class="card" rx="2"/>
  <rect x="17.0000" y="95.0000" width="36.0000" height="36.0000" class="tbg"/>
  <line x1="17.0000" y1="95.0000" x2="35.0000" y2="113.0000" class="tdiv"/>
  <line x1="53.0000" y1="95.0000" x2="35.0000" y2="113.0000" class="tdiv"/>
  <line x1="53.0000" y1="131.0000" x2="35.0000" y2="113.0000" class="tdiv"/>
  <line x1="17.0000" y1="131.0000" x2="35.0000" y2="113.0000" class="tdiv"/>
  <g transform="translate(17.0000,95.0000)">
    <line x1="0.0000" y1="0.0000" x2="36.0000" y2="0.0000" stroke="#0000ff" stroke-width="0.1" fill="none"/>
    <line x1="3.0000" y1="3.0000" x2="33.0000" y2="3.0000" stroke="#0000ff" stroke-width="0.1" fill="none"/>
    <line x1="6.0000" y1="6.0000" x2="30.0000" y2="6.0000" stroke="#0000ff" stroke-width="0.1" fill="none"/>
    <line x1="9.0000" y1="9.0000" x2="27.0000" y2="9.0000" stroke="#0000ff" stroke-width="0.1" fill="none"/>
    <line x1="12.0000" y1="12.0000" x2="24.0000" y2="12.0000" stroke="#0000ff" stroke-width="0.1" fill="none"/>
    <line x1="15.0000" y1="15.0000" x2="21.0000" y2="15.0000" stroke="#0000ff" stroke-width="0.1" fill="none"/>
    <line x1="3.0000" y1="0.0000" x2="3.0000" y2="3.0000" stroke="#0000ff" stroke-width="0.1" fill="none"/>
    <line x1="6.0000" y1="0.0000" x2="6.0000" y2="6.0000" stroke="#0000ff" stroke-width="0.1" fill="none"/>
    <line x1="9.0000" y1="0.0000" x2="9.0000" y2="9.0000" stroke="#0000ff" stroke-width="0.1" fill="none"/>
    <line x1="12.0000" y1="0.0000" x2="12.0000" y2="12.0000" stroke="#0000ff" stroke-width="0.1" fill="none"/>
    <line x1="15.0000" y1="0.0000" x2="15.0000" y2="15.0000" stroke="#0000ff" stroke-width="0.1" fill="none"/>
    <line x1="18.0000" y1="0.0000" x2="18.0000" y2="18.0000" stroke="#0000ff" stroke-width="0.1" fill="none"/>
    <line x1="21.0000" y1="0.0000" x2="21.0000" y2="15.0000" stroke="#0000ff" stroke-width="0.1" fill="none"/>
    <line x1="24.0000" y1="0.0000" x2="24.0000" y2="12.0000" stroke="#0000ff" stroke-width="0.1" fill="none"/>
    <line x1="27.0000" y1="0.0000" x2="27.0000" y2="9.0000" stroke="#0000ff" stroke-width="0.1" fill="none"/>
    <line x1="30.0000" y1="0.0000" x2="30.0000" y2="6.0000" stroke="#0000ff" stroke-width="0.1" fill="none"/>
    <line x1="33.0000" y1="0.0000" x2="33.0000" y2="3.0000" stroke="#0000ff" stroke-width="0.1" fill="none"/>
    <line x1="33.0000" y1="3.0000" x2="36.0000" y2="3.0000" stroke="#0000ff" stroke-width="0.1" fill="none"/>
    <line x1="30.0000" y1="6.0000" x2="36.0000" y2="6.0000" stroke="#0000ff" stroke-width="0.1" fill="none"/>
    <line x1="27.0000" y1="9.0000" x2="36.0000" y2="9.0000" stroke="#0000ff" stroke-width="0.1" fill="none"/>
    <line x1="24.0000" y1="12.0000" x2="36.0000" y2="12.0000" stroke="#0000ff" stroke-width="0.1" fill="none"/>
    <line x1="21.0000" y1="15.0000" x2="36.0000" y2="15.0000" stroke="#0000ff" stroke-width="0.1" fill="none"/>
    <line x1="18.0000" y1="18.0000" x2="36.0000" y2="18.0000" stroke="#0000ff" stroke-width="0.1" fill="none"/>
    <line x1="21.0000" y1="21.0000" x2="36.0000" y2="21.0000" stroke="#0000ff" stroke-width="0.1" fill="none"/>
    <line x1="24.0000" y1="24.0000" x2="36.0000" y2="24.0000" stroke="#0000ff" stroke-width="0.1" fill="none"/>
    <line x1="27.0000" y1="27.0000" x2="36.0000" y2="27.0000" stroke="#0000ff" stroke-width="0.1" fill="none"/>
    <line x1="30.0000" y1="30.0000" x2="36.0000" y2="30.0000" stroke="#0000ff" stroke-width="0.1" fill="none"/>
    <line x1="33.0000" y1="33.0000" x2="36.0000" y2="33.0000" stroke="#0000ff" stroke-width="0.1" fill="none"/>
    <line x1="21.0000" y1="15.0000" x2="21.0000" y2="21.0000" stroke="#0000ff" stroke-width="0.1" fill="none"/>
    <line x1="24.0000" y1="12.0000" x2="24.0000" y2="24.0000" stroke="#0000ff" stroke-width="0.1" fill="none"/>
    <line x1="27.0000" y1="9.0000" x2="27.0000" y2="27.0000" stroke="#0000ff" stroke-width="0.1" fill="none"/>
    <line x1="30.0000" y1="6.0000" x2="30.0000" y2="30.0000" stroke="#0000ff" stroke-width="0.1" fill="none"/>
    <line x1="33.0000" y1="3.0000" x2="33.0000" y2="33.0000" stroke="#0000ff" stroke-width="0.1" fill="none"/>
    <line x1="36.0000" y1="0.0000" x2="36.0000" y2="36.0000" stroke="#0000ff" stroke-width="0.1" fill="none"/>
    <line x1="15.0000" y1="21.0000" x2="21.0000" y2="21.0000" stroke="#0000ff" stroke-width="0.1" fill="none"/>
    <line x1="12.0000" y1="24.0000" x2="24.0000" y2="24.0000" stroke="#0000ff" stroke-width="0.1" fill="none"/>
    <line x1="9.0000" y1="27.0000" x2="27.0000" y2="27.0000" stroke="#0000ff" stroke-width="0.1" fill="none"/>
    <line x1="6.0000" y1="30.0000" x2="30.0000" y2="30.0000" stroke="#0000ff" stroke-width="0.1" fill="none"/>
    <line x1="3.0000" y1="33.0000" x2="33.0000" y2="33.0000" stroke="#0000ff" stroke-width="0.1" fill="none"/>
    <line x1="0.0000" y1="36.0000" x2="36.0000" y2="36.0000" stroke="#0000ff" stroke-width="0.1" fill="none"/>
    <line x1="3.0000" y1="33.0000" x2="3.0000" y2="36.0000" stroke="#0000ff" stroke-width="0.1" fill="none"/>
    <line x1="6.0000" y1="30.0000" x2="6.0000" y2="36.0000" stroke="#0000ff" stroke-width="0.1" fill="none"/>
    <line x1="9.0000" y1="27.0000" x2="9.0000" y2="36.0000" stroke="#0000ff" stroke-width="0.1" fill="none"/>
    <line x1="12.0000" y1="24.0000" x2="12.0000" y2="36.0000" stroke="#0000ff" stroke-width="0.1" fill="none"/>
    <line x1="15.0000" y1="21.0000" x2="15.0000" y2="36.0000" stroke="#0000ff" stroke-width="0.1" fill="none"/>
    <line x1="18.0000" y1="18.0000" x2="18.0000" y2="36.0000" stroke="#0000ff" stroke-width="0.1" fill="none"/>
    <line x1="21.0000" y1="21.0000" x2="21.0000" y2="36.0000" stroke="#0000ff" stroke-width="0.1" fill="none"/>
    <line x1="24.0000" y1="24.0000" x2="24.0000" y2="36.0000" stroke="#0000ff" stroke-width="0.1" fill="none"/>
    <line x1="27.0000" y1="27.0000" x2="27.0000" y2="36.0000" stroke="#0000ff" stroke-width="0.1" fill="none"/>
    <line x1="30.0000" y1="30.0000" x2="30.0000" y2="36.0000" stroke="#0000ff" stroke-width="0.1" fill="none"/>
    <line x1="33.0000" y1="33.0000" x2="33.0000" y2="36.0000" stroke="#0000ff" stroke-width="0.1" fill="none"/>
    <line x1="0.0000" y1="3.0000" x2="3.0000" y2="3.0000" stroke="#0000ff" stroke-width="0.1" fill="none"/>
    <line x1="0.0000" y1="6.0000" x2="6.0000" y2="6.0000" stroke="#0000ff" stroke-width="0.1" fill="none"/>
    <line x1="0.0000" y1="9.0000" x2="9.0000" y2="9.0000" stroke="#0000ff" stroke-width="0.1" fill="none"/>
    <line x1="0.0000" y1="12.0000" x2="12.0000" y2="12.0000" stroke="#0000ff" stroke-width="0.1" fill="none"/>
    <line x1="0.0000" y1="15.0000" x2="15.0000" y2="15.0000" stroke="#0000ff" stroke-width="0.1" fill="none"/>
    <line x1="0.0000" y1="18.0000" x2="18.0000" y2="18.0000" stroke="#0000ff" stroke-width="0.1" fill="none"/>
    <line x1="0.0000" y1="21.0000" x2="15.0000" y2="21.0000" stroke="#0000ff" stroke-width="0.1" fill="none"/>
    <line x1="0.0000" y1="24.0000" x2="12.0000" y2="24.0000" stroke="#0000ff" stroke-width="0.1" fill="none"/>
    <line x1="0.0000" y1="27.0000" x2="9.0000" y2="27.0000" stroke="#0000ff" stroke-width="0.1" fill="none"/>
    <line x1="0.0000" y1="30.0000" x2="6.0000" y2="30.0000" stroke="#0000ff" stroke-width="0.1" fill="none"/>
    <line x1="0.0000" y1="33.0000" x2="3.0000" y2="33.0000" stroke="#0000ff" stroke-width="0.1" fill="none"/>
    <line x1="0.0000" y1="0.0000" x2="0.0000" y2="36.0000" stroke="#0000ff" stroke-width="0.1" fill="none"/>
    <line x1="3.0000" y1="3.0000" x2="3.0000" y2="33.0000" stroke="#0000ff" stroke-width="0.1" fill="none"/>
    <line x1="6.0000" y1="6.0000" x2="6.0000" y2="30.0000" stroke="#0000ff" stroke-width="0.1" fill="none"/>
    <line x1="9.0000" y1="9.0000" x2="9.0000" y2="27.0000" stroke="#0000ff" stroke-width="0.1" fill="none"/>
    <line x1="12.0000" y1="12.0000" x2="12.0000" y2="24.0000" stroke="#0000ff" stroke-width="0.1" fill="none"/>
    <line x1="15.0000" y1="15.0000" x2="15.0000" y2="21.0000" stroke="#0000ff" stroke-width="0.1" fill="none"/>
  </g>
  <circle cx="23.0000" cy="139.0000" r="4.5000" fill="#c89b2a" stroke="#1a1410" stroke-width="0.3"/>
  <text x="30.5000" y="139.0000" class="name">Gold</text>
  <text x="30.5000" y="144.0000" class="desc">crosshatch</text>
  <rect x="60.0000" y="88.0000" width="50.0000" height="66.0000" class="card" rx="2"/>
  <rect x="67.0000" y="95.0000" width="36.0000" height="36.0000" class="tbg"/>
  <line x1="67.0000" y1="95.0000" x2="85.0000" y2="113.0000" class="tdiv"/>
  <line x1="103.0000" y1="95.0000" x2="85.0000" y2="113.0000" class="tdiv"/>
  <line x1="103.0000" y1="131.0000" x2="85.0000" y2="113.0000" class="tdiv"/>
  <line x1="67.0000" y1="131.0000" x2="85.0000" y2="113.0000" class="tdiv"/>
  <g transform="translate(67.0000,95.0000)">
    <defs>
      <clipPath id="kc4e0">
        <polygon points="0.0000,0.0000 36.0000,0.0000 18.0000,18.0000"/>
      </clipPath>
      <clipPath id="kc4e1">
        <polygon points="36.0000,0.0000 36.0000,36.0000 18.0000,18.0000"/>
      </clipPath>
      <clipPath id="kc4e2">
        <polygon points="36.0000,36.0000 0.0000,36.0000 18.0000,18.0000"/>
      </clipPath>
      <clipPath id="kc4e3">
        <polygon points="0.0000,36.0000 0.0000,0.0000 18.0000,18.0000"/>
      </clipPath>
    </defs>
    <circle cx="18.0000" cy="18.0000" r="3.0000" stroke="#0000ff" stroke-width="{ETCH_WIDTH}" fill="none" clip-path="url(#kc4e0)"/>
    <circle cx="18.0000" cy="18.0000" r="6.0000" stroke="#0000ff" stroke-width="{ETCH_WIDTH}" fill="none" clip-path="url(#kc4e0)"/>
    <circle cx="18.0000" cy="18.0000" r="9.0000" stroke="#0000ff" stroke-width="{ETCH_WIDTH}" fill="none" clip-path="url(#kc4e0)"/>
    <circle cx="18.0000" cy="18.0000" r="12.0000" stroke="#0000ff" stroke-width="{ETCH_WIDTH}" fill="none" clip-path="url(#kc4e0)"/>
    <circle cx="18.0000" cy="18.0000" r="15.0000" stroke="#0000ff" stroke-width="{ETCH_WIDTH}" fill="none" clip-path="url(#kc4e0)"/>
    <circle cx="18.0000" cy="18.0000" r="18.0000" stroke="#0000ff" stroke-width="{ETCH_WIDTH}" fill="none" clip-path="url(#kc4e0)"/>
    <circle cx="18.0000" cy="18.0000" r="21.0000" stroke="#0000ff" stroke-width="{ETCH_WIDTH}" fill="none" clip-path="url(#kc4e0)"/>
    <circle cx="18.0000" cy="18.0000" r="24.0000" stroke="#0000ff" stroke-width="{ETCH_WIDTH}" fill="none" clip-path="url(#kc4e0)"/>
    <circle cx="18.0000" cy="18.0000" r="27.0000" stroke="#0000ff" stroke-width="{ETCH_WIDTH}" fill="none" clip-path="url(#kc4e0)"/>
    <circle cx="18.0000" cy="18.0000" r="30.0000" stroke="#0000ff" stroke-width="{ETCH_WIDTH}" fill="none" clip-path="url(#kc4e0)"/>
    <circle cx="18.0000" cy="18.0000" r="33.0000" stroke="#0000ff" stroke-width="{ETCH_WIDTH}" fill="none" clip-path="url(#kc4e0)"/>
    <circle cx="18.0000" cy="18.0000" r="36.0000" stroke="#0000ff" stroke-width="{ETCH_WIDTH}" fill="none" clip-path="url(#kc4e0)"/>
    <circle cx="18.0000" cy="18.0000" r="39.0000" stroke="#0000ff" stroke-width="{ETCH_WIDTH}" fill="none" clip-path="url(#kc4e0)"/>
    <circle cx="18.0000" cy="18.0000" r="42.0000" stroke="#0000ff" stroke-width="{ETCH_WIDTH}" fill="none" clip-path="url(#kc4e0)"/>
    <circle cx="18.0000" cy="18.0000" r="45.0000" stroke="#0000ff" stroke-width="{ETCH_WIDTH}" fill="none" clip-path="url(#kc4e0)"/>
    <circle cx="18.0000" cy="18.0000" r="48.0000" stroke="#0000ff" stroke-width="{ETCH_WIDTH}" fill="none" clip-path="url(#kc4e0)"/>
    <circle cx="18.0000" cy="18.0000" r="3.0000" stroke="#0000ff" stroke-width="{ETCH_WIDTH}" fill="none" clip-path="url(#kc4e1)"/>
    <circle cx="18.0000" cy="18.0000" r="6.0000" stroke="#0000ff" stroke-width="{ETCH_WIDTH}" fill="none" clip-path="url(#kc4e1)"/>
    <circle cx="18.0000" cy="18.0000" r="9.0000" stroke="#0000ff" stroke-width="{ETCH_WIDTH}" fill="none" clip-path="url(#kc4e1)"/>
    <circle cx="18.0000" cy="18.0000" r="12.0000" stroke="#0000ff" stroke-width="{ETCH_WIDTH}" fill="none" clip-path="url(#kc4e1)"/>
    <circle cx="18.0000" cy="18.0000" r="15.0000" stroke="#0000ff" stroke-width="{ETCH_WIDTH}" fill="none" clip-path="url(#kc4e1)"/>
    <circle cx="18.0000" cy="18.0000" r="18.0000" stroke="#0000ff" stroke-width="{ETCH_WIDTH}" fill="none" clip-path="url(#kc4e1)"/>
    <circle cx="18.0000" cy="18.0000" r="21.0000" stroke="#0000ff" stroke-width="{ETCH_WIDTH}" fill="none" clip-path="url(#kc4e1)"/>
    <circle cx="18.0000" cy="18.0000" r="24.0000" stroke="#0000ff" stroke-width="{ETCH_WIDTH}" fill="none" clip-path="url(#kc4e1)"/>
    <circle cx="18.0000" cy="18.0000" r="27.0000" stroke="#0000ff" stroke-width="{ETCH_WIDTH}" fill="none" clip-path="url(#kc4e1)"/>
    <circle cx="18.0000" cy="18.0000" r="30.0000" stroke="#0000ff" stroke-width="{ETCH_WIDTH}" fill="none" clip-path="url(#kc4e1)"/>
    <circle cx="18.0000" cy="18.0000" r="33.0000" stroke="#0000ff" stroke-width="{ETCH_WIDTH}" fill="none" clip-path="url(#kc4e1)"/>
    <circle cx="18.0000" cy="18.0000" r="36.0000" stroke="#0000ff" stroke-width="{ETCH_WIDTH}" fill="none" clip-path="url(#kc4e1)"/>
    <circle cx="18.0000" cy="18.0000" r="39.0000" stroke="#0000ff" stroke-width="{ETCH_WIDTH}" fill="none" clip-path="url(#kc4e1)"/>
    <circle cx="18.0000" cy="18.0000" r="42.0000" stroke="#0000ff" stroke-width="{ETCH_WIDTH}" fill="none" clip-path="url(#kc4e1)"/>
    <circle cx="18.0000" cy="18.0000" r="45.0000" stroke="#0000ff" stroke-width="{ETCH_WIDTH}" fill="none" clip-path="url(#kc4e1)"/>
    <circle cx="18.0000" cy="18.0000" r="48.0000" stroke="#0000ff" stroke-width="{ETCH_WIDTH}" fill="none" clip-path="url(#kc4e1)"/>
    <circle cx="18.0000" cy="18.0000" r="3.0000" stroke="#0000ff" stroke-width="{ETCH_WIDTH}" fill="none" clip-path="url(#kc4e2)"/>
    <circle cx="18.0000" cy="18.0000" r="6.0000" stroke="#0000ff" stroke-width="{ETCH_WIDTH}" fill="none" clip-path="url(#kc4e2)"/>
    <circle cx="18.0000" cy="18.0000" r="9.0000" stroke="#0000ff" stroke-width="{ETCH_WIDTH}" fill="none" clip-path="url(#kc4e2)"/>
    <circle cx="18.0000" cy="18.0000" r="12.0000" stroke="#0000ff" stroke-width="{ETCH_WIDTH}" fill="none" clip-path="url(#kc4e2)"/>
    <circle cx="18.0000" cy="18.0000" r="15.0000" stroke="#0000ff" stroke-width="{ETCH_WIDTH}" fill="none" clip-path="url(#kc4e2)"/>
    <circle cx="18.0000" cy="18.0000" r="18.0000" stroke="#0000ff" stroke-width="{ETCH_WIDTH}" fill="none" clip-path="url(#kc4e2)"/>
    <circle cx="18.0000" cy="18.0000" r="21.0000" stroke="#0000ff" stroke-width="{ETCH_WIDTH}" fill="none" clip-path="url(#kc4e2)"/>
    <circle cx="18.0000" cy="18.0000" r="24.0000" stroke="#0000ff" stroke-width="{ETCH_WIDTH}" fill="none" clip-path="url(#kc4e2)"/>
    <circle cx="18.0000" cy="18.0000" r="27.0000" stroke="#0000ff" stroke-width="{ETCH_WIDTH}" fill="none" clip-path="url(#kc4e2)"/>
    <circle cx="18.0000" cy="18.0000" r="30.0000" stroke="#0000ff" stroke-width="{ETCH_WIDTH}" fill="none" clip-path="url(#kc4e2)"/>
    <circle cx="18.0000" cy="18.0000" r="33.0000" stroke="#0000ff" stroke-width="{ETCH_WIDTH}" fill="none" clip-path="url(#kc4e2)"/>
    <circle cx="18.0000" cy="18.0000" r="36.0000" stroke="#0000ff" stroke-width="{ETCH_WIDTH}" fill="none" clip-path="url(#kc4e2)"/>
    <circle cx="18.0000" cy="18.0000" r="39.0000" stroke="#0000ff" stroke-width="{ETCH_WIDTH}" fill="none" clip-path="url(#kc4e2)"/>
    <circle cx="18.0000" cy="18.0000" r="42.0000" stroke="#0000ff" stroke-width="{ETCH_WIDTH}" fill="none" clip-path="url(#kc4e2)"/>
    <circle cx="18.0000" cy="18.0000" r="45.0000" stroke="#0000ff" stroke-width="{ETCH_WIDTH}" fill="none" clip-path="url(#kc4e2)"/>
    <circle cx="18.0000" cy="18.0000" r="48.0000" stroke="#0000ff" stroke-width="{ETCH_WIDTH}" fill="none" clip-path="url(#kc4e2)"/>
    <circle cx="18.0000" cy="18.0000" r="3.0000" stroke="#0000ff" stroke-width="{ETCH_WIDTH}" fill="none" clip-path="url(#kc4e3)"/>
    <circle cx="18.0000" cy="18.0000" r="6.0000" stroke="#0000ff" stroke-width="{ETCH_WIDTH}" fill="none" clip-path="url(#kc4e3)"/>
    <circle cx="18.0000" cy="18.0000" r="9.0000" stroke="#0000ff" stroke-width="{ETCH_WIDTH}" fill="none" clip-path="url(#kc4e3)"/>
    <circle cx="18.0000" cy="18.0000" r="12.0000" stroke="#0000ff" stroke-width="{ETCH_WIDTH}" fill="none" clip-path="url(#kc4e3)"/>
    <circle cx="18.0000" cy="18.0000" r="15.0000" stroke="#0000ff" stroke-width="{ETCH_WIDTH}" fill="none" clip-path="url(#kc4e3)"/>
    <circle cx="18.0000" cy="18.0000" r="18.0000" stroke="#0000ff" stroke-width="{ETCH_WIDTH}" fill="none" clip-path="url(#kc4e3)"/>
    <circle cx="18.0000" cy="18.0000" r="21.0000" stroke="#0000ff" stroke-width="{ETCH_WIDTH}" fill="none" clip-path="url(#kc4e3)"/>
    <circle cx="18.0000" cy="18.0000" r="24.0000" stroke="#0000ff" stroke-width="{ETCH_WIDTH}" fill="none" clip-path="url(#kc4e3)"/>
    <circle cx="18.0000" cy="18.0000" r="27.0000" stroke="#0000ff" stroke-width="{ETCH_WIDTH}" fill="none" clip-path="url(#kc4e3)"/>
    <circle cx="18.0000" cy="18.0000" r="30.0000" stroke="#0000ff" stroke-width="{ETCH_WIDTH}" fill="none" clip-path="url(#kc4e3)"/>
    <circle cx="18.0000" cy="18.0000" r="33.0000" stroke="#0000ff" stroke-width="{ETCH_WIDTH}" fill="none" clip-path="url(#kc4e3)"/>
    <circle cx="18.0000" cy="18.0000" r="36.0000" stroke="#0000ff" stroke-width="{ETCH_WIDTH}" fill="none" clip-path="url(#kc4e3)"/>
    <circle cx="18.0000" cy="18.0000" r="39.0000" stroke="#0000ff" stroke-width="{ETCH_WIDTH}" fill="none" clip-path="url(#kc4e3)"/>
    <circle cx="18.0000" cy="18.0000" r="42.0000" stroke="#0000ff" stroke-width="{ETCH_WIDTH}" fill="none" clip-path="url(#kc4e3)"/>
    <circle cx="18.0000" cy="18.0000" r="45.0000" stroke="#0000ff" stroke-width="{ETCH_WIDTH}" fill="none" clip-path="url(#kc4e3)"/>
    <circle cx="18.0000" cy="18.0000" r="48.0000" stroke="#0000ff" stroke-width="{ETCH_WIDTH}" fill="none" clip-path="url(#kc4e3)"/>
  </g>
  <circle cx="73.0000" cy="139.0000" r="4.5000" fill="#5b7fa6" stroke="#1a1410" stroke-width="0.3"/>
  <text x="80.5000" y="139.0000" class="name">Slate</text>
  <text x="80.5000" y="144.0000" class="desc">concentric circles</text>
  <rect x="110.0000" y="88.0000" width="50.0000" height="66.0000" class="card" rx="2"/>
  <rect x="117.0000" y="95.0000" width="36.0000" height="36.0000" class="tbg"/>
  <line x1="117.0000" y1="95.0000" x2="135.0000" y2="113.0000" class="tdiv"/>
  <line x1="153.0000" y1="95.0000" x2="135.0000" y2="113.0000" class="tdiv"/>
  <line x1="153.0000" y1="131.0000" x2="135.0000" y2="113.0000" class="tdiv"/>
  <line x1="117.0000" y1="131.0000" x2="135.0000" y2="113.0000" class="tdiv"/>
  <g transform="translate(117.0000,95.0000)">
    <defs>
      <clipPath id="kc5e0">
        <polygon points="0.0000,0.0000 36.0000,0.0000 18.0000,18.0000"/>
      </clipPath>
      <clipPath id="kc5e1">
        <polygon points="36.0000,0.0000 36.0000,36.0000 18.0000,18.0000"/>
      </clipPath>
      <clipPath id="kc5e2">
        <polygon points="36.0000,36.0000 0.0000,36.0000 18.0000,18.0000"/>
      </clipPath>
      <clipPath id="kc5e3">
        <polygon points="0.0000,36.0000 0.0000,0.0000 18.0000,18.0000"/>
      </clipPath>
    </defs>
    <polygon points="0.0000,0.0000 36.0000,0.0000 18.0000,18.0000" stroke="#0000ff" stroke-width="{ETCH_WIDTH}" fill="none" clip-path="url(#kc5e0)"/>
    <polygon points="2.8460,0.9487 33.1540,0.9487 18.0000,16.1026" stroke="#0000ff" stroke-width="{ETCH_WIDTH}" fill="none" clip-path="url(#kc5e0)"/>
    <polygon points="5.6921,1.8974 30.3079,1.8974 18.0000,14.2053" stroke="#0000ff" stroke-width="{ETCH_WIDTH}" fill="none" clip-path="url(#kc5e0)"/>
    <polygon points="8.5381,2.8460 27.4619,2.8460 18.0000,12.3079" stroke="#0000ff" stroke-width="{ETCH_WIDTH}" fill="none" clip-path="url(#kc5e0)"/>
    <polygon points="11.3842,3.7947 24.6158,3.7947 18.0000,10.4105" stroke="#0000ff" stroke-width="{ETCH_WIDTH}" fill="none" clip-path="url(#kc5e0)"/>
    <polygon points="14.2302,4.7434 21.7698,4.7434 18.0000,8.5132" stroke="#0000ff" stroke-width="{ETCH_WIDTH}" fill="none" clip-path="url(#kc5e0)"/>
    <polygon points="17.0763,5.6921 18.9237,5.6921 18.0000,6.6158" stroke="#0000ff" stroke-width="{ETCH_WIDTH}" fill="none" clip-path="url(#kc5e0)"/>
    <polygon points="36.0000,0.0000 36.0000,36.0000 18.0000,18.0000" stroke="#0000ff" stroke-width="{ETCH_WIDTH}" fill="none" clip-path="url(#kc5e1)"/>
    <polygon points="35.0513,2.8460 35.0513,33.1540 19.8974,18.0000" stroke="#0000ff" stroke-width="{ETCH_WIDTH}" fill="none" clip-path="url(#kc5e1)"/>
    <polygon points="34.1026,5.6921 34.1026,30.3079 21.7947,18.0000" stroke="#0000ff" stroke-width="{ETCH_WIDTH}" fill="none" clip-path="url(#kc5e1)"/>
    <polygon points="33.1540,8.5381 33.1540,27.4619 23.6921,18.0000" stroke="#0000ff" stroke-width="{ETCH_WIDTH}" fill="none" clip-path="url(#kc5e1)"/>
    <polygon points="32.2053,11.3842 32.2053,24.6158 25.5895,18.0000" stroke="#0000ff" stroke-width="{ETCH_WIDTH}" fill="none" clip-path="url(#kc5e1)"/>
    <polygon points="31.2566,14.2302 31.2566,21.7698 27.4868,18.0000" stroke="#0000ff" stroke-width="{ETCH_WIDTH}" fill="none" clip-path="url(#kc5e1)"/>
    <polygon points="30.3079,17.0763 30.3079,18.9237 29.3842,18.0000" stroke="#0000ff" stroke-width="{ETCH_WIDTH}" fill="none" clip-path="url(#kc5e1)"/>
    <polygon points="36.0000,36.0000 0.0000,36.0000 18.0000,18.0000" stroke="#0000ff" stroke-width="{ETCH_WIDTH}" fill="none" clip-path="url(#kc5e2)"/>
    <polygon points="33.1540,35.0513 2.8460,35.0513 18.0000,19.8974" stroke="#0000ff" stroke-width="{ETCH_WIDTH}" fill="none" clip-path="url(#kc5e2)"/>
    <polygon points="30.3079,34.1026 5.6921,34.1026 18.0000,21.7947" stroke="#0000ff" stroke-width="{ETCH_WIDTH}" fill="none" clip-path="url(#kc5e2)"/>
    <polygon points="27.4619,33.1540 8.5381,33.1540 18.0000,23.6921" stroke="#0000ff" stroke-width="{ETCH_WIDTH}" fill="none" clip-path="url(#kc5e2)"/>
    <polygon points="24.6158,32.2053 11.3842,32.2053 18.0000,25.5895" stroke="#0000ff" stroke-width="{ETCH_WIDTH}" fill="none" clip-path="url(#kc5e2)"/>
    <polygon points="21.7698,31.2566 14.2302,31.2566 18.0000,27.4868" stroke="#0000ff" stroke-width="{ETCH_WIDTH}" fill="none" clip-path="url(#kc5e2)"/>
    <polygon points="18.9237,30.3079 17.0763,30.3079 18.0000,29.3842" stroke="#0000ff" stroke-width="{ETCH_WIDTH}" fill="none" clip-path="url(#kc5e2)"/>
    <polygon points="0.0000,36.0000 0.0000,0.0000 18.0000,18.0000" stroke="#0000ff" stroke-width="{ETCH_WIDTH}" fill="none" clip-path="url(#kc5e3)"/>
    <polygon points="0.9487,33.1540 0.9487,2.8460 16.1026,18.0000" stroke="#0000ff" stroke-width="{ETCH_WIDTH}" fill="none" clip-path="url(#kc5e3)"/>
    <polygon points="1.8974,30.3079 1.8974,5.6921 14.2053,18.0000" stroke="#0000ff" stroke-width="{ETCH_WIDTH}" fill="none" clip-path="url(#kc5e3)"/>
    <polygon points="2.8460,27.4619 2.8460,8.5381 12.3079,18.0000" stroke="#0000ff" stroke-width="{ETCH_WIDTH}" fill="none" clip-path="url(#kc5e3)"/>
    <polygon points="3.7947,24.6158 3.7947,11.3842 10.4105,18.0000" stroke="#0000ff" stroke-width="{ETCH_WIDTH}" fill="none" clip-path="url(#kc5e3)"/>
    <polygon points="4.7434,21.7698 4.7434,14.2302 8.5132,18.0000" stroke="#0000ff" stroke-width="{ETCH_WIDTH}" fill="none" clip-path="url(#kc5e3)"/>
    <polygon points="5.6921,18.9237 5.6921,17.0763 6.6158,18.0000" stroke="#0000ff" stroke-width="{ETCH_WIDTH}" fill="none" clip-path="url(#kc5e3)"/>
  </g>
  <circle cx="123.0000" cy="139.0000" r="4.5000" fill="#7b3f6e" stroke="#1a1410" stroke-width="0.3"/>
  <text x="130.5000" y="139.0000" class="name">Plum</text>
  <text x="130.5000" y="144.0000" class="desc">concentric triangles</text>
</svg>